#!OML:ASF E:\VariousWalksJay\Project 1\Capture day 1\Session 1\Actor2.ASF
:FULLY-SPECIFIED
:DEGREES
2141
root 8.62154 17.1337 2.06421 180.833 32.2196 -173.31
lowerback -9.38494 0.811224 4.82259
upperback -4.99059 1.04381 -1.39961
thorax 0.164649 0.563666 -4.06803
lowerneck 2.66612 -3.84509 -4.9343
upperneck 22.0624 -5.20988 9.69635
head 6.6177 -1.4994 3.81208
rclavicle 7.03698e-014 -3.18055e-015
rhumerus -28.3121 32.2907 -82.1564
rradius 71.847
rwrist 3.439
rhand -22.6558 -1.59
rfingers 7.12502
rthumb 3.7755 -31.5363
lclavicle 7.03698e-014 -3.18055e-015
lhumerus -17.2378 -52.7676 71.893
lradius 71.0283
lwrist 15.4067
lhand -21.2028 -14.2465
lfingers 7.12502
lthumb 5.17852 15.6702
rfemur -9.58904 -1.58039 20.9712
rtibia 35.7893
rfoot -21.2754 -7.89215
rtoes -10.0432
lfemur 4.62196 -7.10815 -11.0267
ltibia 24.6754
lfoot -26.7881 -1.11825
ltoes -1.79524
2142
root 8.63398 17.1265 2.04329 180.755 32.4304 -173.339
lowerback -9.47731 0.813459 4.77227
upperback -5.01528 1.05053 -1.41268
thorax 0.189923 0.569417 -4.05167
lowerneck 2.54084 -3.86525 -4.82611
upperneck 22.1189 -5.22479 9.53455
head 6.6531 -1.50882 3.73797
rclavicle 1.20464e-013 7.15625e-015
rhumerus -28.3705 32.4068 -82.2058
rradius 71.9006
rwrist 3.4057
rhand -22.7153 -1.61753
rfingers 7.12502
rthumb 3.71802 -31.5648
lclavicle 1.20464e-013 7.15625e-015
lhumerus -17.3036 -52.7219 71.9323
lradius 71.0134
lwrist 15.4114
lhand -21.1686 -14.2747
lfingers 7.12502
lthumb 5.2116 15.6412
rfemur -9.45871 -1.47889 20.9224
rtibia 35.8328
rfoot -21.4009 -7.79111
rtoes -10.1954
lfemur 4.88169 -7.06939 -11.1306
ltibia 24.6351
lfoot -26.9128 -0.937578
ltoes -1.84703
2143
root 8.64722 17.1193 2.02329 180.69 32.6248 -173.313
lowerback -9.5524 0.846546 4.78413
upperback -5.04647 1.09447 -1.43384
thorax 0.203408 0.592252 -4.07556
lowerneck 2.66412 -3.85418 -4.97164
upperneck 21.9565 -5.23425 9.68374
head 6.58633 -1.52593 3.80991
rclavicle -1.19271e-015 -2.3059e-014
rhumerus -28.4363 32.4026 -82.2504
rradius 71.9037
rwrist 3.4201
rhand -22.6513 -1.69092
rfingers 7.12502
rthumb 3.7798 -31.6371
lclavicle -1.19271e-015 -2.3059e-014
lhumerus -17.2666 -52.7904 71.9581
lradius 70.9478
lwrist 15.4439
lhand -21.2261 -14.2418
lfingers 7.12502
lthumb 5.15602 15.6755
rfemur -9.31351 -1.32853 20.9428
rtibia 35.8863
rfoot -21.5435 -7.80493
rtoes -10.5887
lfemur 5.16433 -7.01722 -11.1674
ltibia 24.5716
lfoot -27.0331 -0.814615
ltoes -1.78117
2144
root 8.66018 17.1115 2.00069 180.635 32.8347 -173.295
lowerback -9.6871 0.847287 4.78846
upperback -5.05731 1.09216 -1.45046
thorax 0.265726 0.593531 -4.09406
lowerneck 2.47677 -3.87449 -4.86262
upperneck 22.0221 -5.25489 9.53365
head 6.63598 -1.53687 3.73842
rclavicle -2.38542e-014 3.73715e-014
rhumerus -28.3942 32.5198 -82.2878
rradius 71.8756
rwrist 3.37055
rhand -22.8376 -1.73561
rfingers 7.12502
rthumb 3.59996 -31.685
lclavicle -2.38542e-014 3.73715e-014
lhumerus -17.2619 -52.7413 71.917
lradius 70.9361
lwrist 15.4369
lhand -21.1858 -14.191
lfingers 7.12502
lthumb 5.19493 15.7253
rfemur -9.1802 -1.20001 20.9375
rtibia 35.9442
rfoot -21.6997 -7.71152
rtoes -10.7297
lfemur 5.4417 -6.96002 -11.2257
ltibia 24.5154
lfoot -27.1468 -0.635852
ltoes -1.87312
2145
root 8.67307 17.104 1.97928 180.548 33.0196 -173.346
lowerback -9.78833 0.851615 4.72333
upperback -5.11354 1.10695 -1.4824
thorax 0.263727 0.603455 -4.08837
lowerneck 2.52545 -3.84989 -5.00362
upperneck 21.9411 -5.24754 9.69218
head 6.6072 -1.53897 3.81445
rclavicle 1.19271e-015 7.87187e-014
rhumerus -28.4902 32.5624 -82.3279
rradius 71.8822
rwrist 3.37448
rhand -22.7501 -1.66712
rfingers 7.12502
rthumb 3.68438 -31.615
lclavicle 1.19271e-015 7.87187e-014
lhumerus -17.3033 -52.7616 71.9908
lradius 70.8748
lwrist 15.4519
lhand -21.1313 -14.2308
lfingers 7.12502
lthumb 5.24757 15.6842
rfemur -9.06236 -1.07722 20.8725
rtibia 36.0208
rfoot -21.8419 -7.65856
rtoes -10.9885
lfemur 5.69924 -6.91405 -11.3422
ltibia 24.4553
lfoot -27.2619 -0.474683
ltoes -1.89481
2146
root 8.68509 17.0951 1.95582 180.481 33.231 -173.318
lowerback -9.89261 0.836325 4.74278
upperback -5.16683 1.0878 -1.494
thorax 0.263134 0.595066 -4.11279
lowerneck 2.51928 -3.85178 -4.89842
upperneck 21.9295 -5.23379 9.52388
head 6.59749 -1.54028 3.74048
rclavicle 5.12864e-014 1.59028e-014
rhumerus -28.5844 32.6857 -82.4291
rradius 71.8737
rwrist 3.37621
rhand -22.6418 -1.58559
rfingers 7.12502
rthumb 3.78904 -31.5317
lclavicle 5.12864e-014 1.59028e-014
lhumerus -17.4186 -52.7399 72.0589
lradius 70.8486
lwrist 15.4756
lhand -21.1594 -14.2449
lfingers 7.12502
lthumb 5.22046 15.6708
rfemur -8.9287 -0.897177 20.8814
rtibia 36.1133
rfoot -21.9999 -7.61272
rtoes -11.1804
lfemur 5.98248 -6.83451 -11.3891
ltibia 24.4117
lfoot -27.3757 -0.332553
ltoes -1.90634
2147
root 8.6971 17.0862 1.92987 180.397 33.4245 -173.416
lowerback -10.0235 0.784814 4.64412
upperback -5.26196 1.03553 -1.52179
thorax 0.229096 0.572508 -4.09079
lowerneck 2.4691 -3.80991 -4.86657
upperneck 21.9516 -5.17742 9.4791
head 6.607 -1.51453 3.72269
rclavicle -5.00937e-014 -1.43125e-014
rhumerus -28.6821 32.8868 -82.5189
rradius 71.8651
rwrist 3.33891
rhand -22.6191 -1.65645
rfingers 7.12502
rthumb 3.81095 -31.6021
lclavicle -5.00937e-014 -1.43125e-014
lhumerus -17.6306 -52.7015 72.182
lradius 70.8577
lwrist 15.659
lhand -21.2419 -14.0606
lfingers 7.12502
lthumb 5.14079 15.8571
rfemur -8.85526 -0.750931 20.7605
rtibia 36.2273
rfoot -22.154 -7.56064
rtoes -11.4842
lfemur 6.22295 -6.76833 -11.5634
ltibia 24.3553
lfoot -27.4905 -0.149823
ltoes -1.96984
